HIERARCHY
ROOT Bip001_Pelvis
{
  OFFSET 34.4345 95.6767 -26.8758
  CHANNELS 6 Xposition Yposition Zposition Zrotation Xrotation Yrotation
  JOINT Bip001_Spine
  {
    OFFSET 1.4188e-005 10.2191 -0.0116013
    CHANNELS 3 Zrotation Xrotation Yrotation
    JOINT Bip001_L_Thigh
    {
      OFFSET 11.0458 -10.2192 0.0116197
      CHANNELS 3 Zrotation Xrotation Yrotation
      JOINT Bip001_L_Calf
      {
        OFFSET -0.707118 -44.0221 0.360014
        CHANNELS 3 Zrotation Xrotation Yrotation
        JOINT Bip001_L_Foot
        {
          OFFSET -0.651902 -40.5938 -3.56146
          CHANNELS 3 Zrotation Xrotation Yrotation
          JOINT Bip001_L_Toe0
          {
            OFFSET 0.0530839 -10.2181 13.1504
            CHANNELS 3 Zrotation Xrotation Yrotation
            End Site
            {
              OFFSET -1.02532e-005 0 7.55606
            }
          }
        }
      }
    }
    JOINT Bip001_R_Thigh
    {
      OFFSET -11.0458 -10.2191 0.0115893
      CHANNELS 3 Zrotation Xrotation Yrotation
      JOINT Bip001_R_Calf
      {
        OFFSET 0.706994 -44.0221 0.35984
        CHANNELS 3 Zrotation Xrotation Yrotation
        JOINT Bip001_R_Foot
        {
          OFFSET 0.651786 -40.5938 -3.5613
          CHANNELS 3 Zrotation Xrotation Yrotation
          JOINT Bip001_R_Toe0
          {
            OFFSET -0.0531479 -10.2181 13.1504
            CHANNELS 3 Zrotation Xrotation Yrotation
            End Site
            {
              OFFSET -1.02894e-005 0 7.55606
            }
          }
        }
      }
    }
    JOINT Bip001_Spine1
    {
      OFFSET 1.87041e-005 14.5736 1.08638
      CHANNELS 3 Zrotation Xrotation Yrotation
      JOINT Bip001_Spine2
      {
        OFFSET 2.24614e-005 14.5058 -1.69078
        CHANNELS 3 Zrotation Xrotation Yrotation
        JOINT Bip001_Neck
        {
          OFFSET 2.20278e-005 15.3945 -0.489414
          CHANNELS 3 Zrotation Xrotation Yrotation
          JOINT Bip001_L_Clavicle
          {
            OFFSET 6.06036 -0.000579998 0.00836775
            CHANNELS 3 Zrotation Xrotation Yrotation
            JOINT Bip001_L_UpperArm
            {
              OFFSET 11.5509 -0.0600302 0.00193952
              CHANNELS 3 Zrotation Xrotation Yrotation
              JOINT Bip001_L_Forearm
              {
                OFFSET 25.9523 0.0806089 -2.15551
                CHANNELS 3 Zrotation Xrotation Yrotation
                JOINT Bip001_L_Hand
                {
                  OFFSET 32.2475 0.153767 1.63968
                  CHANNELS 3 Zrotation Xrotation Yrotation
                  JOINT Bip001_L_Finger0
                  {
                    OFFSET 6.04639 -2.20976 5.90322
                    CHANNELS 3 Zrotation Xrotation Yrotation
                    End Site
                    {
                      OFFSET 4.22375 -1.43895 0.606485
                    }
                  }
                  JOINT Bip001_L_Finger1
                  {
                    OFFSET 11.0826 -0.704819 -0.198153
                    CHANNELS 3 Zrotation Xrotation Yrotation
                    End Site
                    {
                      OFFSET 6.20027 -0.397518 -0.0787166
                    }
                  }
                }
              }
            }
          }
          JOINT Bip001_R_Clavicle
          {
            OFFSET -6.06037 -0.000563197 0.00835105
            CHANNELS 3 Zrotation Xrotation Yrotation
            JOINT Bip001_R_UpperArm
            {
              OFFSET -11.5509 -0.0599978 0.00190698
              CHANNELS 3 Zrotation Xrotation Yrotation
              JOINT Bip001_R_Forearm
              {
                OFFSET -25.9523 0.0806822 -2.15589
                CHANNELS 3 Zrotation Xrotation Yrotation
                JOINT Bip001_R_Hand
                {
                  OFFSET -32.2475 0.153859 1.63989
                  CHANNELS 3 Zrotation Xrotation Yrotation
                  JOINT Bip001_R_Finger0
                  {
                    OFFSET -6.04641 -2.20976 5.90317
                    CHANNELS 3 Zrotation Xrotation Yrotation
                    End Site
                    {
                      OFFSET -4.22376 -1.43895 0.60647
                    }
                  }
                  JOINT Bip001_R_Finger1
                  {
                    OFFSET -11.0826 -0.704794 -0.198182
                    CHANNELS 3 Zrotation Xrotation Yrotation
                    End Site
                    {
                      OFFSET -6.20028 -0.397504 -0.0787333
                    }
                  }
                }
              }
            }
          }
          JOINT Bip001_Head
          {
            OFFSET 1.09673e-005 11.2744 2.05948
            CHANNELS 3 Zrotation Xrotation Yrotation
            End Site
            {
              OFFSET 2.89576e-005 20.8808 -2.77728e-005
            }
          }
        }
      }
    }
  }
}
MOTION
Frames:	13
Frame Time:	0.04
33.3457 92.5949 -28.7247 -2.55346 -7.40747 8.43721 -0.0154008 2.09598 -0.0642989 13.3904 -7.75678 11.0466 -1.63908 32.3719 -9.54922 3.77784 -16.0431 0.373657 1.18069 -4.82603 -0.580131 -1.53476 -1.48014 -0.9024 3.27079 25.5774 0.629556 -13.5709 -12.0802 -12.1849 4.03054 -12.6244 3.86162 -0.0284837 4.19204 -0.128221 -0.0284845 4.19204 -0.128222 7.58291 -7.89834 2.05662 -28.6321 11.0252 -5.83302 -49.3172 39.3352 4.37818 24.3162 5.31395 -42.7601 7.68992 2.61574 -7.73709 6.36111e-015 3.18055e-015 -6.36111e-015 6.36111e-015 3.18056e-015 -6.36111e-015 0.147814 10.3837 10.925 75.8048 -63.7689 68.653 -48.3778 6.67915 83.2349 -9.93322 -6.0037 2.96649 4.77083e-015 3.97569e-016 -7.20594e-016 4.77083e-015 1.98785e-016 -1.46604e-015 -6.11242 -9.31393 4.67738 
33.5338 93.4866 -28.7574 -2.73461 -5.91254 10.7717 -0.222706 1.69898 0.43343 12.8002 -8.0845 10.2385 -0.75045 28.7897 -11.2828 3.39797 -14.181 0.283142 1.25018 -4.74587 -0.836421 -0.553939 -0.0549384 -1.12028 2.50686 20.6562 0.279879 -12.7641 -9.2911 -13.3365 3.90331 -12.2023 3.63533 -0.4585 3.39624 0.874086 -0.458501 3.39625 0.874088 7.87824 -9.35259 -0.221792 -28.0348 11.4313 -4.35129 -49.2242 40.3284 4.72632 24.57 5.93997 -41.8069 7.34554 2.24756 -8.28129 6.36111e-015 6.36111e-015 -0 9.54166e-015 6.36111e-015 -3.18055e-015 -6.23315 10.8777 13.6394 63.0903 -53.9943 65.7754 -48.583 7.1863 72.6743 -6.9815 -7.50408 3.84308 2.20695e-032 3.18055e-015 -3.97569e-016 -3.18055e-015 1.59028e-015 -0 -6.19693 -7.65459 2.50012 
33.6887 94.2427 -28.8029 -3.01389 -4.55343 12.3095 -0.50948 1.37833 0.964902 12.6289 -8.04688 10.6562 -0.181088 25.2161 -13.5099 3.17747 -12.3731 0.215143 1.27372 -4.70319 -0.979876 0.337603 1.33331 -0.968922 1.9632 15.6958 -0.168405 -11.9883 -6.69067 -14.1828 3.74517 -11.8666 3.62249 -1.04265 2.74695 1.94286 -1.04265 2.74651 1.94286 9.00748 -10.7597 -2.63554 -28.138 11.8241 -3.27096 -48.2695 40.2376 5.13791 23.2416 5.45519 -41.4671 7.1438 2.25812 -7.70769 1.59028e-014 -3.18055e-015 -6.36111e-015 1.27222e-014 -4.77083e-015 -3.18055e-015 -13.6536 10.7924 19.6971 38.2695 -44.6035 55.5161 -43.9023 4.41894 51.4476 -3.77215 -8.15768 4.46526 -4.41391e-032 3.18055e-015 7.95139e-016 -3.18055e-015 3.18056e-015 1.59028e-015 -6.68706 -5.96104 0.464624 
33.6142 94.8567 -28.852 -3.2462 -3.84 13.7202 -0.83479 1.36887 1.64556 13.0841 -7.78291 9.00891 -1.26368 21.8941 -13.4376 2.78042 -10.6676 0.158904 1.33226 -4.67406 -1.11361 1.30055 3.08728 -1.66243 1.47938 10.5962 -0.546047 -11.2734 -4.3909 -14.5268 3.60323 -11.5724 3.64167 -1.69053 2.71349 3.30857 -1.69949 2.71303 3.30943 10.077 -13.1129 -5.29749 -29.9574 12.8988 -1.63173 -44.6199 41.0425 4.46399 21.6913 4.21823 -40.7441 7.16555 2.1772 -7.40975 1.27222e-014 -3.18055e-015 -0 9.54166e-015 -3.18056e-015 6.36111e-015 -21.1563 10.4679 27.4436 17.6858 -38.3836 48.3198 -48.3631 10.7949 26.0179 -9.06211 4.9157 0.894567 1.59028e-015 1.59028e-015 5.96354e-016 1.59028e-015 7.95139e-016 3.97569e-016 -6.73026 -3.94745 -1.94195 
33.4233 95.2185 -29.085 -3.9369 -2.59927 15.9893 -0.775211 1.22029 1.99142 13.4327 -9.1483 6.1793 -2.3445 20.0902 -12.8799 2.56251 -9.48885 0.12121 1.03021 -4.49331 -0.951291 2.26634 3.99799 -3.09422 1.00126 6.11518 -0.57947 -10.8227 -2.26294 -15.185 3.45478 -11.2279 3.60478 -1.59291 2.41278 4.00051 -1.5929 2.41278 4.0005 10.8961 -14.9062 -8.00908 -32.3532 12.8632 1.71489 -41.1348 43.5148 2.55183 20.5147 3.35035 -39.1685 8.62143 1.47796 -8.18266 -3.18055e-015 3.18055e-015 -0 -3.18055e-015 0 -3.18055e-015 -24.479 10.2205 31.198 25.8524 -48.1011 60.385 -55.3043 19.5055 29.5769 9.67121 -7.13107 -11.2811 -3.18055e-015 -3.97569e-016 -0 -3.18055e-015 -3.97569e-016 -3.97569e-016 -7.66221 -1.90973 -4.18741 
33.4944 95.4755 -29.3806 -4.34913 -1.79364 17.8089 -0.588203 1.12568 2.25543 13.008 -10.1626 2.9734 -2.90613 18.683 -11.264 1.94707 -8.66254 0.10502 1.02329 -4.18564 -1.02994 2.66426 4.93418 -4.98593 0.523717 2.37961 -0.952581 -10.3162 -0.533892 -14.7234 3.40519 -11.0755 3.55434 -1.20161 2.22678 4.52098 -1.20658 2.22718 4.52132 12.3255 -16.0256 -10.6473 -34.6305 11.9012 4.87661 -39.5124 45.551 0.332485 20.1613 3.95716 -37.1407 8.90962 1.67563 -7.59581 3.53112e-031 -3.18055e-015 6.36111e-015 3.18055e-015 3.18056e-015 3.18055e-015 -31.051 7.74542 30.2736 30.018 -52.7939 69.0799 -49.9637 28.2071 29.279 9.47357 -8.69076 1.44767 9.54166e-015 -3.18055e-015 -3.97569e-016 6.36111e-015 -3.18056e-015 3.97569e-016 -9.26636 -0.553668 -6.0976 
33.6946 95.7231 -29.3186 -4.05795 -1.77413 17.5217 -0.656534 1.11345 2.86064 12.9866 -9.06981 4.41797 -2.95213 16.9347 -12.3525 -0.132876 -9.11446 0.0441694 0.458865 -2.68038 -0.700214 2.61195 5.04454 -5.52431 -0.0168483 2.30592 -1.13285 -9.64444 -0.679523 -14.4432 3.36795 -10.8968 3.38767 -1.35261 2.1917 5.73993 -1.35089 2.19269 5.73717 15.6286 -16.0686 -13.3651 -38.4671 9.64773 5.78501 -38.1779 45.8246 1.22222 20.9207 5.28926 -37.2161 7.7565 2.01839 -7.32855 6.36111e-015 3.18055e-015 -0 3.18055e-015 6.36111e-015 -0 -40.8331 2.55929 27.6765 6.70397 -44.4509 53.7531 -36.9024 13.5893 15.471 5.52501 -2.49025 7.40164 -6.06912e-032 7.95139e-016 4.37326e-015 3.18055e-015 7.95139e-016 5.1684e-015 -11.6557 -0.632658 -7.66317 
33.8356 95.9022 -29.3992 -3.6764 -1.34722 17.8758 -0.799911 1.06743 2.85294 12.3915 -8.45705 5.34329 -2.62805 14.9863 -13.54 -0.272551 -8.08919 0.0451309 0.51995 -2.77335 -0.701105 2.25108 5.1404 -5.57569 -0.153344 1.68008 -1.36467 -9.13482 -0.565012 -14.3874 3.29239 -10.6594 3.27692 -1.6736 2.09482 5.72353 -1.66252 2.09382 5.72387 18.3605 -15.7721 -14.8751 -41.3221 7.41088 7.05582 -36.9913 47.8327 1.7396 20.4432 5.04849 -36.0706 8.53773 1.64926 -7.4528 3.18055e-015 0 -3.18055e-015 3.18055e-015 0 -3.18055e-015 -44.327 -0.0868375 28.3495 -2.13438 -37.9775 51.8863 -37.8966 6.54159 12.7747 3.97098 -3.5099 4.13063 -1.59028e-015 -3.18055e-015 -3.97569e-016 -1.59028e-015 -1.59028e-015 1.98785e-015 -13.5192 -0.867619 -8.21185 
33.8866 95.9203 -29.6811 -3.18552 -0.894804 18.0838 -0.710351 1.1604 2.70453 11.3766 -8.4675 5.86413 -2.24854 13.8839 -14.0535 -0.146828 -7.24361 0.0504064 0.689278 -3.0907 -0.761069 1.30006 4.6593 -6.07464 0.0482584 1.85985 -1.34537 -9.01897 -1.0675 -13.9627 3.2539 -10.5665 3.26353 -1.47308 2.28564 5.42963 -1.47372 2.28586 5.42327 16.4401 -17.6976 -15.0142 -41.3666 8.90495 9.39583 -35.6815 50.2105 -0.206635 20.6746 5.47286 -33.393 7.93413 1.32809 -7.7967 -6.36111e-015 -3.18055e-015 3.18055e-015 -9.54166e-015 -3.18056e-015 3.18055e-015 -43.2944 1.5813 30.946 14.4467 -41.659 69.0303 -41.3124 11.5581 18.5604 4.99442 -4.52488 5.87399 1.59028e-015 0 4.77083e-015 3.18055e-015 0 3.97569e-015 -13.0447 1.61118 -8.70588 
33.799 95.8591 -29.9355 -2.99401 -0.691914 17.3472 -0.532127 1.2059 2.69607 10.8539 -8.42697 6.44729 -2.04636 13.5326 -13.7993 0.489539 -6.73834 0.0545267 1.20831 -3.57653 -1.21644 0.720168 4.27313 -5.71719 0.20809 1.84621 -1.37427 -9.15807 -1.17306 -13.7212 3.25702 -10.6106 3.32439 -1.12079 2.38537 5.405 -1.12079 2.38537 5.405 13.6272 -17.6484 -15.1592 -39.2253 9.45363 10.3493 -35.9168 49.5428 -1.28185 21.4873 8.07377 -32.7891 6.38987 1.68405 -8.04855 -9.54166e-015 -1.27222e-014 9.54166e-015 -1.27222e-014 -1.27222e-014 6.36111e-015 -39.1082 3.1103 32.9926 34.7742 -38.8165 85.8477 -48.1562 16.2142 31.1606 10.3426 -3.65162 5.23283 0 6.36111e-015 -0 -4.41391e-032 3.18056e-015 7.95139e-016 -11.1723 1.66934 -9.65336 
33.7661 95.8209 -30.1974 -2.70293 -0.705332 17.1734 -0.466352 1.26333 2.52396 10.1157 -8.31318 5.21062 -1.82497 13.0481 -12.9965 2.08904 -5.44517 0.0294102 1.63089 -4.87275 -1.39617 0.196429 4.1137 -6.17966 0.352744 1.9748 -1.32802 -9.11712 -1.31597 -13.0302 3.23577 -10.6114 3.38763 -0.988197 2.50484 5.05995 -0.988241 2.50484 5.05993 13.9817 -16.8561 -15.2847 -39.2558 8.48389 10.5818 -37.1641 49.2932 -1.45172 21.3065 8.33694 -31.9823 5.53125 1.75533 -7.41645 -3.18055e-015 0 -0 -3.18055e-015 -6.36111e-015 -0 -35.8685 4.04426 33.5957 41.7964 -31.1454 90.1009 -57.7363 17.8046 43.8673 11.3376 -7.08785 1.22447 3.18055e-015 3.18055e-015 -0 6.36111e-015 6.36111e-015 2.38542e-015 -11.651 0.940086 -9.61216 
33.7706 95.7888 -30.3452 -2.50285 -0.943023 16.7928 -0.365974 1.37551 2.30148 9.95141 -8.25038 5.77528 -1.8032 13.4225 -13.2109 1.99395 -5.67177 0.0352514 1.33785 -4.82148 -1.05451 -0.284484 4.08984 -6.18239 0.570723 2.24977 -0.939212 -9.17008 -1.57996 -12.6398 3.21612 -10.5525 3.37724 -0.787508 2.7352 4.61362 -0.787303 2.73521 4.61364 14.4774 -15.2664 -15.1182 -39.2992 7.08584 9.8775 -39.048 49.0338 -0.700885 20.5053 6.41834 -31.3346 5.75154 1.71114 -6.73634 -1.76556e-031 -3.18055e-015 -3.18055e-015 0 0 -3.18055e-015 -31.7433 4.85239 33.9483 44.2143 -23.3633 86.8706 -64.2427 13.5381 55.0884 6.64392 -7.69239 1.6706 7.95139e-016 -6.36111e-015 6.36111e-015 1.59028e-015 -3.18056e-015 4.77083e-015 -12.1742 -0.714599 -9.29505 
33.7847 95.7623 -30.5769 -2.2449 -0.691652 15.8184 -0.315498 1.44203 1.97458 9.54453 -8.17135 6.00439 -1.82211 13.1185 -12.0785 2.21786 -5.34977 0.0309288 1.55746 -4.9388 -1.23336 -0.998325 2.88126 -5.29252 0.740837 3.78174 -0.80047 -9.31646 -2.22021 -12.422 3.25601 -10.6659 3.41075 -0.68089 2.87234 3.95894 -0.680891 2.87232 3.95895 13.8012 -14.0849 -14.243 -38.9955 6.38885 9.91571 -40.3989 47.7265 0.128417 19.9519 5.25287 -31.4419 6.18246 1.61827 -6.47315 -3.18055e-015 3.18055e-015 -0 -3.18055e-015 0 -0 -25.7604 7.12597 35.2814 53.4692 -18.4354 81.6267 -73.2753 9.96982 74.0201 4.42533 -9.32489 2.2135 2.78298e-015 9.54166e-015 -3.97569e-016 2.78299e-015 9.54167e-015 -1.19271e-015 -11.1989 -1.58448 -8.82827 
